<?xml version="1.0" encoding="utf-8"?>
<!-- Generator: Adobe Illustrator 16.0.0, SVG Export Plug-In . SVG Version: 6.00 Build 0)  -->
<!DOCTYPE svg PUBLIC "-//W3C//DTD SVG 1.1//EN" "http://www.w3.org/Graphics/SVG/1.1/DTD/svg11.dtd">
<svg version="1.1" id="Layer_1" xmlns="http://www.w3.org/2000/svg" xmlns:xlink="http://www.w3.org/1999/xlink" x="0px" y="0px"
	 width="500px" height="500px" viewBox="0 0 500 500" enable-background="new 0 0 500 500" xml:space="preserve">
<g>
	<path stroke="#000000" stroke-miterlimit="10" d="M50.284,503.785c-17.086,0-34.172,0-51.258,0
		c7.462-28.66,28.468-45.856,49.39-65.58c18.392-17.338,49.125-41.715,40.34-70.833c-13.728-45.5-90.381-66.814-89.763-117.376
		c0.621-50.797,77.32-70.759,90.075-117.375c6.473-23.656-13.593-43.423-28.741-58.502C36.374,50.272,6.944,30.684-1.007-3.791
		c17.085,0,34.171-0.001,51.256,0c8.211,33.34,34.492,53.54,56.899,77.909c14.195,15.438,33.137,35.594,26.799,58.501
		c-12.459,45.033-83.04,68.538-83.698,117.376c-0.671,49.774,73.816,72.507,87.423,117.376
		c8.709,28.719-21.269,53.323-39.252,70.833C77.997,458.09,57.775,475.474,50.284,503.785z"/>
	<path stroke="#000000" stroke-miterlimit="10" d="M117.729,504.801c-18.555,0-37.109,0-55.664,0
		c6.639-28.407,26.516-45.831,46.726-65.712c17.876-17.586,47.962-42.25,39.945-70.971c-12.751-45.681-86.645-67.646-86.683-117.613
		c-0.037-48.347,68.609-73.167,80.891-117.611c6.294-22.779-11.745-42.904-25.697-58.619C95.43,49.703,70.002,29.311,62.081-3.791
		c18.551,0,37.102-0.001,55.652,0c8.243,47.65,74.743,86.582,64.186,136.685c-9.118,43.271-65.229,71.616-64.195,117.611
		c1.117,49.749,68.842,71.635,80.601,117.613c7.265,28.408-19.785,52.655-37.175,70.971
		C142.02,459.236,123.582,476.87,117.729,504.801z"/>
	<path stroke="#000000" stroke-miterlimit="10" d="M181.236,503.785c-18.693,0-37.386,0-56.08,0
		c6.396-27.636,24.673-45.277,43.614-65.449c17.276-18.399,43.369-42.453,35.918-70.69c-12.029-45.589-78.28-67.672-79.569-117.141
		c-1.185-45.45,52.667-74.377,61.621-117.142c10.437-49.85-53.007-89.01-61.586-136.136c18.678-0.001,37.355,0.001,56.033,0
		c4.827,48.208,49.961,86.321,43.594,136.137c-5.311,41.552-45.879,74.074-43.555,117.141c2.643,48.99,62.225,71.369,72.987,117.141
		c6.567,27.928-16.333,51.485-32.992,70.69C203.49,458.776,186.71,476.637,181.236,503.785z"/>
	<path stroke="#000000" stroke-miterlimit="10" d="M242.74,503.785c-16.169,0-32.338,0-48.507,0
		c5.314-27.039,21.782-44.952,39.26-65.449c16.507-19.358,38.812-42.84,32.405-70.69c-10.519-45.727-68.789-68.326-71.672-117.141
		c-2.513-42.554,35.281-75.893,39.945-117.141c5.598-49.499-35.856-88.034-39.993-136.137c16.172-0.003,32.345-0.001,48.518,0
		c3.201,47.059,34.788,88.223,30.545,136.137c-3.554,40.136-33.264,76.218-30.514,117.141c3.233,48.12,58.183,71.814,68.234,117.141
		C322.285,418.704,251.835,455.926,242.74,503.785z"/>
	<path stroke="#000000" stroke-miterlimit="10" d="M298.736,503.785c-15.145,0-30.288,0-45.433,0
		c9.162-47.676,79.447-85.523,67.809-136.413c-10.332-45.175-65.013-69.203-67.837-117.376
		c-2.388-40.735,26.227-77.288,29.654-117.375C287,85.013,256.24,43.148,253.277-3.792c15.144,0.001,30.288,0.001,45.432,0.001
		c2.584,47.606,36.323,88.003,32.29,136.411c-3.383,40.598-34.761,75.998-32.288,117.375c2.897,48.492,58.463,71.937,68.804,117.376
		C379.196,418.704,307.844,455.748,298.736,503.785z"/>
	<path stroke="#000000" stroke-miterlimit="10" d="M366.251,503.785c-19.006,0-38.011,0-57.017,0
		c9.15-48.08,80.994-84.766,69.521-136.14c-10.174-45.556-66.335-68.697-69.525-117.141c-2.742-41.64,30.269-76.483,34.058-117.141
		c4.538-48.701-30.843-88.496-34.109-136.137c19.012,0,38.024,0,57.036,0c5.988,48.136,56.864,86.051,49.22,136.137
		c-6.407,41.977-51.189,73.307-49.202,117.141c2.23,49.203,63.882,71.366,75.044,117.141c6.836,28.034-17.037,51.734-33.909,70.69
		C389.251,458.689,371.997,476.479,366.251,503.785z"/>
	<path stroke="#000000" stroke-miterlimit="10" d="M425.242,504.801c-15.955,0-31.909,0-47.864,0
		c5.286-27.627,22.78-45.388,41.175-65.712c17.04-18.827,42.037-42.743,35.307-70.971c-11.001-46.137-74.508-68.093-76.479-117.614
		c-1.771-44.496,46.018-75.106,52.886-117.61c8.146-50.413-46.925-88.127-52.893-136.686c15.959,0,31.917,0,47.876,0
		c6.163,31.914,27.879,52.971,46.948,78.065c12.681,16.687,26.933,36.449,21.828,58.619c-10.03,43.565-69.526,71.005-68.79,117.611
		c0.787,49.806,70.229,71.727,82.277,117.613c7.479,28.48-20.418,52.864-37.938,70.971
		C450.147,459.167,431.332,476.744,425.242,504.801z"/>
	<path stroke="#000000" stroke-miterlimit="10" d="M494.746,504.801c-18.097,0-36.193,0-54.29,0
		c6.317-28.188,25.544-45.709,45.276-65.712c17.657-17.899,46.422-42.404,38.723-70.971c-12.34-45.786-83.546-67.761-84.01-117.614
		c-0.439-47.255,62.601-73.73,73.551-117.61c5.588-22.393-10.155-42.316-23.354-58.619c-20.158-24.9-43.283-45.703-50.178-78.065
		c18.098,0,36.195,0,54.293,0c8.487,33.806,36.003,53.806,59.146,78.066c14.573,15.277,34.269,35.437,27.527,58.619
		c-7.699,26.475-35.543,46.51-53.956,65.296c-13.147,13.414-32.663,31.743-32.738,52.314c-0.094,25.509,27.933,47.202,44.407,62.933
		c15.902,15.185,38.083,32.503,44.39,54.681c8.221,28.906-22.832,53.607-40.927,70.971
		C522.002,458.86,501.558,476.18,494.746,504.801z"/>
	<path stroke="#000000" stroke-miterlimit="10" d="M529.995,503.785c-10.568,0-15.853,0-26.427,0
		c7.591-28.492,28.266-45.781,49-65.58c18.178-17.357,48.813-41.938,39.975-70.833c-6.778-22.158-29.003-39.313-45.072-54.567
		c-16.519-15.682-44.341-37.251-43.938-62.809c0.326-20.665,20.218-38.862,33.557-52.208c18.556-18.566,46.965-38.621,54.496-65.167
		c6.603-23.272-13.465-43.368-28.166-58.502c-23.41-24.1-51.42-43.973-59.889-77.909c10.574,0,15.861,0,26.431,0
		c7.95,34.472,37.381,54.064,61.332,77.909c15.147,15.08,35.217,34.845,28.743,58.502c-12.757,46.616-89.455,66.579-90.076,117.375
		c-0.618,50.563,76.037,71.875,89.763,117.376c8.783,29.118-21.948,53.494-40.339,70.833
		C558.464,457.93,537.455,475.124,529.995,503.785z"/>
</g>
<g>
	<path stroke="#000000" stroke-miterlimit="10" d="M-498.568,503.787c-17.086,0-34.172,0-51.258,0
		c7.464-28.662,28.468-45.855,49.391-65.581c18.392-17.339,49.125-41.715,40.339-70.833c-13.728-45.5-90.381-66.813-89.763-117.376
		c0.621-50.8,77.324-70.757,90.077-117.376c6.471-23.656-13.597-43.424-28.744-58.502c-23.953-23.845-53.383-43.436-61.333-77.909
		c17.085,0,34.17,0.001,51.255-0.001c8.215,33.339,34.492,53.542,56.9,77.911c14.196,15.437,33.137,35.594,26.8,58.501
		c-12.458,45.033-83.041,68.537-83.699,117.376c-0.67,49.775,73.817,72.506,87.423,117.376
		c8.708,28.718-21.268,53.323-39.251,70.833C-470.855,458.092-491.077,475.474-498.568,503.787z"/>
	<path stroke="#000000" stroke-miterlimit="10" d="M-431.123,504.802c-18.555,0-37.109-0.003-55.664,0
		c6.639-28.407,26.515-45.832,46.724-65.712c17.877-17.586,47.963-42.25,39.947-70.971c-12.75-45.683-86.646-67.645-86.684-117.614
		c-0.037-48.347,68.61-73.165,80.891-117.61c6.294-22.778-11.745-42.905-25.697-58.62c-21.817-24.573-47.244-44.964-55.167-78.065
		c18.551-0.001,37.101,0,55.652,0c8.246,47.647,74.745,86.584,64.188,136.685c-9.118,43.27-65.229,71.615-64.196,117.61
		c1.117,49.748,68.839,71.636,80.6,117.613c7.266,28.407-19.782,52.657-37.173,70.972
		C-406.833,459.237-425.27,476.869-431.123,504.802z"/>
	<path stroke="#000000" stroke-miterlimit="10" d="M-367.616,503.787c-18.694,0-37.387,0-56.081,0
		c6.401-27.635,24.672-45.276,43.613-65.45c17.276-18.4,43.37-42.451,35.92-70.689c-12.028-45.591-78.279-67.673-79.569-117.144
		c-1.186-45.448,52.667-74.376,61.621-117.139c10.438-49.854-53.009-89.007-61.584-136.138c18.677,0,37.354,0.001,56.032,0
		c4.83,48.208,49.958,86.322,43.594,136.138c-5.309,41.552-45.879,74.072-43.556,117.139c2.643,48.989,62.222,71.374,72.986,117.144
		c6.568,27.928-16.333,51.484-32.991,70.689C-345.363,458.778-362.143,476.638-367.616,503.787z"/>
	<path stroke="#000000" stroke-miterlimit="10" d="M-306.112,503.787c-16.169,0-32.338,0-48.507,0
		c5.313-27.041,21.782-44.953,39.26-65.45c16.506-19.358,38.811-42.84,32.405-70.689c-10.518-45.728-68.788-68.329-71.672-117.144
		c-2.514-42.553,35.282-75.891,39.945-117.139c5.597-49.498-35.853-88.035-39.993-136.137c16.172-0.001,32.345,0,48.518,0
		c3.203,47.059,34.788,88.224,30.545,136.137c-3.555,40.136-33.263,76.216-30.514,117.139c3.232,48.12,58.184,71.817,68.234,117.144
		C-226.568,418.705-297.018,455.928-306.112,503.787z"/>
	<path stroke="#000000" stroke-miterlimit="10" d="M-250.116,503.787c-15.145,0-30.288,0-45.433,0
		c9.164-47.675,79.446-85.526,67.808-136.414c-10.332-45.176-65.007-69.201-67.834-117.376
		c-2.39-40.734,26.221-77.29,29.651-117.376c4.074-47.605-26.686-89.472-29.651-136.411c15.144,0,30.288,0,45.432,0
		c2.585,47.606,36.322,88.002,32.291,136.411c-3.381,40.598-34.765,75.998-32.29,117.376c2.9,48.492,58.466,71.936,68.805,117.376
		C-169.657,418.708-241.009,455.748-250.116,503.787z"/>
	<path stroke="#000000" stroke-miterlimit="10" d="M-182.602,503.787c-19.006,0-38.011,0-57.017,0
		c9.153-48.077,80.993-84.771,69.523-136.14c-10.172-45.557-66.333-68.699-69.526-117.144
		c-2.744-41.638,30.268-76.481,34.057-117.139c4.538-48.698-30.834-88.5-34.11-136.138c19.013,0,38.024,0.001,57.037,0.001
		c5.985,48.139,56.861,86.047,49.219,136.136c-6.405,41.978-51.188,73.306-49.201,117.14c2.23,49.205,63.883,71.368,75.044,117.144
		c6.835,28.034-17.038,51.732-33.909,70.689C-159.603,458.693-176.853,476.479-182.602,503.787z"/>
	<path stroke="#000000" stroke-miterlimit="10" d="M-123.61,504.802c-15.955,0-31.909,0-47.864,0
		c5.29-27.628,22.78-45.387,41.177-65.712c17.039-18.826,42.035-42.745,35.305-70.971c-11.001-46.137-74.508-68.092-76.479-117.614
		c-1.771-44.493,46.015-75.108,52.886-117.61c8.149-50.41-46.925-88.129-52.893-136.685c15.959,0,31.917,0.001,47.876-0.001
		c6.164,31.913,27.876,52.973,46.948,78.066c12.683,16.687,26.933,36.449,21.828,58.62c-10.03,43.565-69.525,71.004-68.79,117.61
		c0.786,49.806,70.226,71.728,82.275,117.614c7.479,28.483-20.416,52.862-37.937,70.971
		C-98.703,459.166-117.525,476.747-123.61,504.802z"/>
	<path stroke="#000000" stroke-miterlimit="10" d="M-54.104,504.802c-18.098,0-36.194,0-54.292,0
		c6.313-28.187,25.544-45.712,45.274-65.712c17.657-17.898,46.425-42.403,38.725-70.971c-12.341-45.784-83.545-67.762-84.01-117.614
		c-0.44-47.255,62.601-73.73,73.551-117.61c5.588-22.391-10.156-42.319-23.354-58.62c-20.157-24.898-43.288-45.704-50.178-78.065
		c18.099,0,36.196,0,54.295,0c8.481,33.805,36.002,53.808,59.144,78.066c14.577,15.28,34.268,35.434,27.524,58.619
		c-7.701,26.478-35.538,46.508-53.953,65.296c-13.147,13.414-32.663,31.743-32.738,52.313
		c-0.094,25.509,27.933,47.202,44.407,62.934c15.903,15.186,38.081,32.503,44.389,54.681c8.222,28.91-22.831,53.604-40.929,70.971
		C-26.85,458.857-47.298,476.185-54.104,504.802z"/>
	<path stroke="#000000" stroke-miterlimit="10" d="M-18.858,503.787c-10.568,0-15.854,0-26.428,0
		c7.594-28.491,28.268-45.783,49.003-65.581c18.179-17.357,48.813-41.938,39.973-70.833c-6.778-22.157-29-39.314-45.069-54.567
		c-16.519-15.68-44.343-37.251-43.94-62.809c0.325-20.664,20.22-38.863,33.558-52.209c18.554-18.565,46.969-38.621,54.497-65.167
		c6.6-23.271-13.467-43.369-28.168-58.502C-8.845,50.02-36.851,30.145-45.323-3.79c10.574,0,15.862,0,26.432,0
		c7.951,34.474,37.381,54.064,61.333,77.909c15.146,15.079,35.216,34.846,28.744,58.502
		c-12.753,46.617-89.458,66.577-90.079,117.376c-0.618,50.564,76.042,71.874,89.767,117.376
		c8.783,29.12-21.951,53.494-40.343,70.833C9.607,457.931-11.395,475.126-18.858,503.787z"/>
</g>
</svg>
