<?xml version="1.0" encoding="utf-8"?>
<!-- Generator: Adobe Illustrator 16.0.0, SVG Export Plug-In . SVG Version: 6.00 Build 0)  -->
<!DOCTYPE svg PUBLIC "-//W3C//DTD SVG 1.1//EN" "http://www.w3.org/Graphics/SVG/1.1/DTD/svg11.dtd">
<svg version="1.1" id="Layer_1" xmlns="http://www.w3.org/2000/svg" xmlns:xlink="http://www.w3.org/1999/xlink" x="0px" y="0px"
	 width="500px" height="500px" viewBox="0 0 500 500" enable-background="new 0 0 500 500" xml:space="preserve">
<g>
	<path fill="none" stroke="#FFFFFF" stroke-width="0.5" stroke-miterlimit="10" d="M35.669,503.783c-12.214,0-24.428,0-36.642,0
		c7.462-28.662,28.468-45.855,49.392-65.58c18.393-17.34,49.121-41.711,40.336-70.83c-13.727-45.5-90.38-66.814-89.762-117.377
		c0.622-50.8,77.323-70.758,90.076-117.376c6.471-23.656-13.595-43.421-28.742-58.501C36.374,50.271,6.944,30.685-1.007-3.791
		c12.213,0,24.426,0,36.639,0c8.441,33.7,35.779,53.702,58.832,77.909c14.506,15.233,34.225,35.379,27.69,58.501
		c-12.837,45.428-85.759,67.958-86.521,117.376c-0.394,25.489,27.234,47.093,43.671,62.808
		c15.994,15.291,38.021,32.453,44.779,54.569c8.806,28.819-21.617,53.423-39.717,70.83
		C63.745,458.035,43.244,475.363,35.669,503.783z"/>
	<path fill="none" stroke="#FFFFFF" stroke-width="0.5" stroke-miterlimit="10" d="M94.613,504.801c-10.849,0-21.698,0-32.547,0
		c6.639-28.407,26.516-45.831,46.726-65.712c17.876-17.586,47.962-42.251,39.946-70.971
		c-12.751-45.683-86.646-67.646-86.684-117.613c-0.037-48.347,68.609-73.167,80.891-117.611
		c6.294-22.779-11.745-42.904-25.697-58.619C95.43,49.703,70.002,29.311,62.081-3.791c10.848-0.001,21.695-0.001,32.542,0
		c6.606,32.185,29.173,53.088,48.905,78.065c12.998,16.454,28.152,36.317,22.754,58.62c-10.589,43.753-72.234,70.614-71.678,117.61
		c0.589,49.833,71.097,71.792,83.327,117.614c7.615,28.53-20.81,52.991-38.413,70.971
		C119.905,459.121,100.842,476.665,94.613,504.801z"/>
	<path fill="none" stroke="#FFFFFF" stroke-width="0.5" stroke-miterlimit="10" d="M162.774,503.783c-12.54,0-25.079,0-37.618,0
		c6.397-27.635,24.674-45.274,43.614-65.446c17.274-18.397,43.371-42.456,35.919-70.69c-12.032-45.59-78.278-67.672-79.57-117.142
		c-1.187-45.451,52.669-74.376,61.621-117.141c10.435-49.851-53.008-89.009-61.586-136.136c12.527,0,25.055-0.001,37.583,0
		c5.989,48.135,56.845,86.054,49.207,136.137c-6.402,41.976-51.178,73.309-49.188,117.141c2.233,49.202,63.876,71.368,75.04,117.143
		c6.837,28.031-17.036,51.734-33.906,70.689C185.773,458.69,168.52,476.477,162.774,503.783z"/>
	<path fill="none" stroke="#FFFFFF" stroke-width="0.5" stroke-miterlimit="10" d="M233.967,503.783c-13.902,0-27.804,0-41.706,0
		c5.335-27.056,21.852-44.96,39.366-65.446c16.529-19.333,38.917-42.832,32.49-70.69c-10.551-45.735-69.014-68.299-71.864-117.142
		c-2.487-42.631,35.718-75.847,40.471-117.142c5.703-49.55-36.28-88.013-40.519-136.136c13.903,0,27.807,0,41.71,0
		c3.136,47.298,35.948,87.918,31.68,136.137c-3.571,40.334-34.412,75.956-31.638,117.14c3.25,48.24,58.572,71.719,68.644,117.143
		C313.955,418.859,243.047,455.801,233.967,503.783z"/>
	<path fill="none" stroke="#FFFFFF" stroke-width="0.5" stroke-miterlimit="10" d="M277.714,503.783c-9.758,0-14.639,0-24.409,0
		c9.165-47.676,79.441-85.52,67.808-136.41c-10.329-45.178-65.013-69.202-67.837-117.377
		c-2.387-40.735,26.228-77.288,29.654-117.376C287,85.012,256.24,43.148,253.277-3.792c9.771,0,14.65,0.001,24.41,0.001
		c2.896,47.006,33.834,88.729,29.795,136.411c-3.4,40.132-32.205,76.59-29.797,117.376c2.846,48.202,57.568,72.173,67.891,117.377
		C357.208,418.314,286.861,456.061,277.714,503.783z"/>
	<path fill="none" stroke="#FFFFFF" stroke-width="0.5" stroke-miterlimit="10" d="M345.856,503.783c-12.207,0-24.413,0-36.62,0
		c9.142-48.088,80.991-84.756,69.52-136.137c-10.172-45.556-66.335-68.699-69.527-117.143
		c-2.743-41.64,30.277-76.482,34.061-117.141c4.529-48.7-30.836-88.496-34.109-136.136c12.21,0,24.42,0.001,36.63,0
		c4.722,48.2,49.299,86.36,43.055,136.136c-5.207,41.51-45.369,74.15-43.016,117.142c2.683,48.966,62.062,71.377,72.789,117.142
		c6.544,27.914-16.264,51.465-32.9,70.69C368.041,458.784,351.31,476.651,345.856,503.783z"/>
	<path fill="none" stroke="#FFFFFF" stroke-width="0.5" stroke-miterlimit="10" d="M409.935,504.801c-10.853,0-21.703,0-32.557,0
		c5.286-27.626,22.78-45.388,41.175-65.712c17.04-18.827,42.037-42.743,35.308-70.971c-11.001-46.138-74.509-68.093-76.479-117.614
		c-1.771-44.496,46.019-75.106,52.886-117.61c8.146-50.413-46.925-88.127-52.893-136.686c10.854,0,21.71,0,32.565,0
		c8.159,47.692,74.229,86.563,63.758,136.685c-9.034,43.243-64.826,71.671-63.768,117.61c1.147,49.743,68.713,71.627,80.444,117.614
		c7.245,28.4-19.729,52.637-37.105,70.971C434.166,459.243,415.77,476.882,409.935,504.801z"/>
	<path fill="none" stroke="#FFFFFF" stroke-width="0.5" stroke-miterlimit="10" d="M466.903,504.801c-10.579,0-15.867,0-26.447,0
		c6.313-28.188,25.545-45.711,45.276-65.712c17.656-17.897,46.422-42.403,38.723-70.971c-12.34-45.786-83.545-67.761-84.01-117.614
		c-0.44-47.255,62.602-73.73,73.551-117.61c5.588-22.393-10.155-42.316-23.354-58.619c-20.157-24.9-43.282-45.703-50.178-78.065
		c10.582,0,15.872,0,26.451,0c7.926,33.1,33.351,53.494,55.168,78.066c13.953,15.715,31.991,35.84,25.696,58.619
		c-12.282,44.443-80.927,69.265-80.89,117.611c0.038,49.969,73.937,71.932,86.686,117.613c8.016,28.721-22.071,53.386-39.946,70.971
		C493.421,458.97,473.542,476.394,466.903,504.801z"/>
	<path fill="none" stroke="#FFFFFF" stroke-width="0.5" stroke-miterlimit="10" d="M529.994,503.783c-10.568,0-15.854,0-26.427,0
		c7.592-28.492,28.267-45.782,49.002-65.58c18.181-17.357,48.812-41.936,39.972-70.83c-6.779-22.159-29-39.314-45.071-54.568
		c-16.518-15.68-44.341-37.253-43.938-62.809c0.326-20.664,20.219-38.864,33.557-52.209c18.558-18.566,46.966-38.62,54.497-65.167
		c6.603-23.271-13.466-43.367-28.166-58.501C540.01,50.018,512,30.145,503.531-3.791c10.574,0,15.86,0,26.431,0
		c7.95,34.472,37.381,54.065,61.332,77.909c15.148,15.081,35.217,34.844,28.743,58.501c-12.755,46.616-89.458,66.579-90.077,117.376
		c-0.616,50.565,76.039,71.872,89.763,117.377c8.781,29.119-21.942,53.489-40.337,70.83
		C558.463,457.928,537.459,475.122,529.994,503.783z"/>
</g>
<g>
	<path fill="none" stroke="#FFFFFF" stroke-width="0.5" stroke-miterlimit="10" d="M-527.154,503.272c-12.213,0-24.427,0-36.641,0
		c7.46-28.659,28.47-45.854,49.39-65.577c18.392-17.34,49.122-41.713,40.337-70.83c-13.727-45.502-90.383-66.814-89.762-117.378
		c0.624-50.799,77.321-70.759,90.075-117.376c6.472-23.655-13.593-43.422-28.741-58.502C-526.448,49.764-555.879,30.175-563.83-4.3
		c12.213,0,24.426,0,36.639,0c8.438,33.699,35.779,53.704,58.831,77.909c14.507,15.232,34.225,35.379,27.691,58.502
		c-12.835,45.43-85.758,67.956-86.522,117.376c-0.394,25.49,27.234,47.094,43.671,62.809c15.993,15.291,38.021,32.453,44.778,54.569
		c8.806,28.82-21.616,53.422-39.715,70.83C-499.075,457.526-519.578,474.855-527.154,503.272z"/>
	<path fill="none" stroke="#FFFFFF" stroke-width="0.5" stroke-miterlimit="10" d="M-468.208,504.291c-10.849,0-21.698,0-32.547,0
		c6.64-28.407,26.513-45.831,46.724-65.711c17.876-17.584,47.963-42.249,39.947-70.971c-12.75-45.683-86.646-67.646-86.684-117.613
		c-0.037-48.348,68.611-73.165,80.891-117.611c6.293-22.779-11.746-42.905-25.698-58.62c-21.818-24.574-47.241-44.963-55.166-78.065
		c10.848-0.001,21.695,0,32.543,0c6.607,32.185,29.173,53.088,48.905,78.065c12.998,16.454,28.152,36.316,22.753,58.62
		c-10.591,43.754-72.231,70.614-71.678,117.61c0.587,49.835,71.099,71.791,83.328,117.614c7.614,28.533-20.811,52.99-38.414,70.971
		C-442.917,458.61-461.983,476.155-468.208,504.291z"/>
	<path fill="none" stroke="#FFFFFF" stroke-width="0.5" stroke-miterlimit="10" d="M-400.049,503.272c-12.539,0-25.079,0-37.618,0
		c6.4-27.635,24.675-45.273,43.614-65.446c17.274-18.398,43.371-42.45,35.919-70.688c-12.031-45.592-78.28-67.673-79.57-117.145
		c-1.185-45.451,52.668-74.375,61.622-117.14c10.437-49.848-53.007-89.013-61.587-136.137c12.528,0,25.055-0.001,37.583,0
		c5.986,48.137,56.845,86.053,49.206,136.137c-6.402,41.977-51.179,73.307-49.188,117.141c2.234,49.202,63.875,71.368,75.04,117.144
		c6.837,28.031-17.034,51.731-33.906,70.688C-377.049,458.18-394.299,475.968-400.049,503.272z"/>
	<path fill="none" stroke="#FFFFFF" stroke-width="0.5" stroke-miterlimit="10" d="M-328.856,503.272c-13.902,0-27.804,0-41.706,0
		c5.337-27.056,21.852-44.959,39.366-65.446c16.529-19.335,38.919-42.828,32.488-70.688
		c-10.556-45.734-69.015-68.303-71.863-117.144c-2.486-42.631,35.718-75.846,40.471-117.142
		c5.703-49.55-36.28-88.013-40.517-136.136c13.903,0,27.805,0,41.708,0c3.138,47.296,35.952,87.919,31.68,136.136
		c-3.573,40.335-34.409,75.957-31.637,117.141c3.247,48.24,58.568,71.722,68.645,117.143
		C-248.862,418.343-319.773,455.297-328.856,503.272z"/>
	<path fill="none" stroke="#FFFFFF" stroke-width="0.5" stroke-miterlimit="10" d="M-285.109,503.272c-9.758,0-14.637,0-24.409,0
		c9.164-47.676,79.443-85.52,67.807-136.407c-10.33-45.178-65.01-69.202-67.835-117.378c-2.388-40.736,26.225-77.288,29.651-117.376
		c4.069-47.608-26.686-89.471-29.651-136.411c9.771,0,14.65,0,24.409,0c2.897,47.007,33.835,88.728,29.797,136.411
		c-3.399,40.132-32.203,76.589-29.796,117.376c2.845,48.205,57.572,72.172,67.891,117.378
		C-205.618,417.805-275.958,455.554-285.109,503.272z"/>
	<path fill="none" stroke="#FFFFFF" stroke-width="0.5" stroke-miterlimit="10" d="M-216.965,503.272c-12.208,0-24.415,0-36.622,0
		c9.145-48.087,80.992-84.755,69.521-136.134c-10.171-45.557-66.335-68.701-69.527-117.144
		c-2.744-41.639,30.274-76.483,34.06-117.141c4.535-48.7-30.842-88.496-34.11-136.137c12.21,0.001,24.42,0,36.63,0
		c4.716,48.202,49.302,86.36,43.054,136.137c-5.21,41.51-45.367,74.148-43.016,117.141c2.678,48.966,62.062,71.379,72.791,117.144
		c6.544,27.916-16.266,51.461-32.903,70.688C-194.781,458.272-211.517,476.142-216.965,503.272z"/>
	<path fill="none" stroke="#FFFFFF" stroke-width="0.5" stroke-miterlimit="10" d="M-152.887,504.291c-10.852,0-21.704,0-32.555,0
		c5.284-27.628,22.776-45.389,41.173-65.711c17.042-18.826,42.038-42.742,35.307-70.971c-11.002-46.137-74.507-68.092-76.48-117.614
		c-1.772-44.495,46.019-75.107,52.886-117.611c8.145-50.41-46.922-88.129-52.893-136.686C-174.594-4.3-163.74-4.3-152.885-4.3
		c8.167,47.691,74.224,86.563,63.757,136.686c-9.031,43.243-64.826,71.672-63.765,117.61c1.149,49.745,68.714,71.626,80.444,117.615
		c7.244,28.4-19.725,52.637-37.104,70.97C-128.656,458.734-147.055,476.37-152.887,504.291z"/>
	<path fill="none" stroke="#FFFFFF" stroke-width="0.5" stroke-miterlimit="10" d="M-95.918,504.291c-10.579,0-15.87,0-26.449,0
		c6.317-28.188,25.543-45.711,45.276-65.711c17.658-17.896,46.424-42.405,38.725-70.971c-12.342-45.785-83.544-67.76-84.01-117.614
		c-0.441-47.255,62.601-73.73,73.551-117.61c5.588-22.393-10.156-42.317-23.354-58.62c-20.158-24.9-43.286-45.703-50.177-78.066
		c10.582,0,15.873,0.001,26.452,0.001c7.922,33.1,33.348,53.495,55.165,78.066c13.953,15.715,31.994,35.839,25.699,58.619
		c-12.281,44.444-80.928,69.265-80.891,117.611c0.039,49.969,73.933,71.934,86.684,117.613
		c8.017,28.722-22.069,53.386-39.947,70.971C-69.404,458.459-89.28,475.885-95.918,504.291z"/>
	<path fill="none" stroke="#FFFFFF" stroke-width="0.5" stroke-miterlimit="10" d="M-32.825,503.272c-10.568,0-15.856,0-26.43,0
		c7.597-28.488,28.27-45.779,49.002-65.577c18.18-17.36,48.813-41.934,39.972-70.83c-6.78-22.16-29-39.314-45.072-54.569
		c-16.518-15.678-44.341-37.254-43.937-62.809c0.326-20.662,20.222-38.864,33.558-52.209c18.554-18.567,46.967-38.621,54.497-65.167
		C35.366,108.84,15.3,88.741,0.598,73.609C-22.813,49.511-50.822,29.635-59.291-4.3c10.574,0,15.861,0,26.43,0
		c7.951,34.473,37.379,54.065,61.333,77.909c15.148,15.08,35.214,34.845,28.743,58.502C44.463,178.73-32.238,198.688-32.86,249.487
		c-0.619,50.563,76.034,71.876,89.76,117.378c8.784,29.119-21.943,53.49-40.336,70.83C-4.356,457.418-25.365,474.613-32.825,503.272
		z"/>
</g>
</svg>
