<?xml version="1.0" encoding="utf-8"?>
<!-- Generator: Adobe Illustrator 16.0.0, SVG Export Plug-In . SVG Version: 6.00 Build 0)  -->
<!DOCTYPE svg PUBLIC "-//W3C//DTD SVG 1.1//EN" "http://www.w3.org/Graphics/SVG/1.1/DTD/svg11.dtd">
<svg version="1.1" id="Layer_1" xmlns="http://www.w3.org/2000/svg" xmlns:xlink="http://www.w3.org/1999/xlink" x="0px" y="0px"
	 width="500px" height="500px" viewBox="0 0 500 500" enable-background="new 0 0 500 500" xml:space="preserve">
<g>
	<path stroke="#000000" stroke-miterlimit="10" d="M-19.782,503.276c-12.214,0-24.428,0-36.642,0
		c7.462-28.662,28.468-45.855,49.392-65.58c18.393-17.34,49.121-41.711,40.336-70.83c-13.727-45.5-90.38-66.814-89.762-117.377
		c0.622-50.8,77.323-70.758,90.076-117.376c6.471-23.656-13.595-43.421-28.742-58.501c-23.953-23.848-53.383-43.434-61.334-77.91
		c12.213,0,24.426,0,36.639,0c8.441,33.7,35.779,53.702,58.832,77.909c14.506,15.233,34.225,35.379,27.69,58.501
		C53.866,177.54-19.056,200.07-19.818,249.488c-0.394,25.489,27.234,47.093,43.671,62.808
		c15.994,15.291,38.021,32.453,44.779,54.569c8.806,28.819-21.617,53.423-39.717,70.83C8.294,457.528-12.207,474.856-19.782,503.276
		z"/>
	<path stroke="#000000" stroke-miterlimit="10" d="M39.162,504.294c-10.849,0-21.698,0-32.547,0
		c6.639-28.407,26.516-45.831,46.726-65.712c17.876-17.586,47.962-42.251,39.946-70.971C80.536,321.929,6.641,299.966,6.604,249.998
		c-0.037-48.347,68.609-73.167,80.891-117.611c6.294-22.779-11.745-42.904-25.697-58.619C39.979,49.196,14.551,28.804,6.63-4.298
		c10.848-0.001,21.695-0.001,32.542,0c6.606,32.185,29.173,53.088,48.905,78.065c12.998,16.454,28.152,36.317,22.754,58.62
		c-10.589,43.753-72.234,70.614-71.678,117.61c0.589,49.833,71.097,71.792,83.327,117.614c7.615,28.53-20.81,52.991-38.413,70.971
		C64.454,458.614,45.391,476.158,39.162,504.294z"/>
	<path stroke="#000000" stroke-miterlimit="10" d="M107.323,503.276c-12.54,0-25.079,0-37.618,0
		c6.397-27.635,24.674-45.274,43.614-65.446c17.274-18.397,43.371-42.456,35.919-70.69c-12.032-45.59-78.278-67.672-79.57-117.142
		c-1.187-45.451,52.669-74.376,61.621-117.141C141.724,83.006,78.281,43.848,69.703-3.279c12.527,0,25.055-0.001,37.583,0
		c5.989,48.135,56.845,86.054,49.207,136.137c-6.402,41.976-51.178,73.309-49.188,117.141c2.233,49.202,63.876,71.368,75.04,117.143
		c6.837,28.031-17.036,51.734-33.906,70.689C130.322,458.184,113.069,475.97,107.323,503.276z"/>
	<path stroke="#000000" stroke-miterlimit="10" d="M178.516,503.276c-13.902,0-27.804,0-41.706,0
		c5.335-27.056,21.852-44.96,39.366-65.446c16.529-19.333,38.917-42.832,32.49-70.69c-10.551-45.735-69.014-68.299-71.864-117.142
		c-2.487-42.631,35.718-75.847,40.471-117.142c5.703-49.55-36.28-88.013-40.519-136.136c13.903,0,27.807,0,41.71,0
		c3.136,47.298,35.948,87.918,31.68,136.137c-3.571,40.334-34.412,75.956-31.638,117.14c3.25,48.24,58.572,71.719,68.644,117.143
		C258.504,418.353,187.596,455.294,178.516,503.276z"/>
	<path stroke="#000000" stroke-miterlimit="10" d="M222.263,503.276c-9.758,0-14.639,0-24.409,0
		c9.165-47.676,79.441-85.52,67.808-136.41c-10.33-45.178-65.013-69.202-67.837-117.377c-2.387-40.735,26.228-77.288,29.654-117.376
		c4.07-47.608-26.689-89.472-29.652-136.412c9.771,0,14.65,0.001,24.41,0.001c2.896,47.006,33.833,88.729,29.794,136.411
		c-3.4,40.132-32.205,76.59-29.796,117.376c2.846,48.202,57.568,72.173,67.89,117.377
		C301.758,417.808,231.411,455.554,222.263,503.276z"/>
	<path stroke="#000000" stroke-miterlimit="10" d="M290.406,503.276c-12.207,0-24.414,0-36.621,0
		c9.143-48.088,80.992-84.756,69.52-136.137c-10.172-45.556-66.334-68.699-69.527-117.143
		c-2.742-41.64,30.277-76.482,34.061-117.141c4.529-48.7-30.836-88.496-34.109-136.136c12.211,0,24.42,0.001,36.631,0
		c4.721,48.2,49.299,86.36,43.055,136.136c-5.207,41.51-45.369,74.15-43.016,117.142c2.682,48.966,62.061,71.377,72.789,117.142
		c6.543,27.914-16.264,51.465-32.9,70.69C312.59,458.277,295.859,476.145,290.406,503.276z"/>
	<path stroke="#000000" stroke-miterlimit="10" d="M354.484,504.294c-10.854,0-21.703,0-32.557,0
		c5.285-27.626,22.779-45.388,41.174-65.712c17.041-18.827,42.037-42.743,35.309-70.971c-11.002-46.138-74.51-68.093-76.48-117.614
		c-1.77-44.496,46.02-75.106,52.887-117.61c8.146-50.413-46.926-88.127-52.893-136.686c10.854,0,21.709,0,32.564,0
		c8.16,47.692,74.229,86.563,63.758,136.685c-9.033,43.243-64.826,71.671-63.768,117.61c1.148,49.743,68.713,71.627,80.445,117.614
		c7.244,28.4-19.729,52.637-37.105,70.971C378.715,458.736,360.318,476.375,354.484,504.294z"/>
	<path stroke="#000000" stroke-miterlimit="10" d="M411.453,504.294c-10.58,0-15.867,0-26.447,0
		c6.313-28.188,25.545-45.711,45.275-65.712c17.656-17.897,46.422-42.403,38.723-70.971c-12.34-45.786-83.545-67.761-84.01-117.614
		c-0.439-47.255,62.602-73.73,73.551-117.61c5.588-22.393-10.154-42.316-23.354-58.619c-20.158-24.9-43.283-45.703-50.178-78.065
		c10.582,0,15.871,0,26.451,0c7.926,33.1,33.35,53.494,55.168,78.066c13.953,15.715,31.99,35.84,25.695,58.619
		c-12.281,44.443-80.926,69.265-80.889,117.611c0.037,49.969,73.936,71.932,86.686,117.613
		c8.016,28.721-22.072,53.386-39.947,70.971C437.971,458.463,418.092,475.887,411.453,504.294z"/>
	<path stroke="#000000" stroke-miterlimit="10" d="M474.543,503.276c-10.568,0-15.854,0-26.426,0
		c7.592-28.492,28.266-45.782,49.002-65.58c18.18-17.357,48.811-41.936,39.971-70.83c-6.779-22.159-29-39.314-45.07-54.568
		c-16.518-15.68-44.342-37.253-43.938-62.809c0.326-20.664,20.219-38.864,33.557-52.209c18.557-18.566,46.965-38.62,54.496-65.167
		c6.604-23.271-13.465-43.367-28.166-58.501c-23.41-24.101-51.42-43.974-59.889-77.91c10.574,0,15.861,0,26.432,0
		c7.949,34.472,37.381,54.065,61.332,77.909c15.148,15.081,35.217,34.844,28.742,58.501
		c-12.754,46.616-89.457,66.579-90.076,117.376c-0.617,50.565,76.039,71.872,89.762,117.377
		c8.781,29.119-21.941,53.489-40.336,70.83C503.012,457.421,482.008,474.615,474.543,503.276z"/>
</g>
</svg>
