<?xml version="1.0" encoding="utf-8"?>
<!-- Generator: Adobe Illustrator 16.0.0, SVG Export Plug-In . SVG Version: 6.00 Build 0)  -->
<!DOCTYPE svg PUBLIC "-//W3C//DTD SVG 1.1//EN" "http://www.w3.org/Graphics/SVG/1.1/DTD/svg11.dtd">
<svg version="1.1" id="Layer_1" xmlns="http://www.w3.org/2000/svg" xmlns:xlink="http://www.w3.org/1999/xlink" x="0px" y="0px"
	 width="500px" height="500px" viewBox="0 0 500 500" enable-background="new 0 0 500 500" xml:space="preserve">
<g>
	<path d="M62.753,500.5c-20.917,0-41.833,0-62.75,0c7.392-46.51,61.908-78.526,60.738-125.951
		c-1.151-46.684-56.407-73.283-60.46-119.061c-4.108-46.402,48.694-75.811,58.887-118.146C71.32,86.874,7.139,48.041,0,0
		c20.917,0,41.833,0.001,62.75,0c7.141,48.042,71.317,86.873,59.168,137.343c-10.191,42.335-62.996,71.744-58.888,118.146
		c4.053,45.777,59.307,72.377,60.459,119.061C124.66,421.976,70.142,453.988,62.753,500.5z"/>
	<path d="M188.247,501c-20.917,0-41.833,0-62.749,0c6.979-46.904,61.556-78.484,60.749-126.074
		c-0.793-46.789-56.186-73.45-60.439-119.181c-4.321-46.452,48.531-75.963,58.823-118.266C196.919,86.974,132.652,48.06,125.498,0
		c20.917,0,41.833,0,62.749,0c7.155,48.059,71.421,86.975,59.132,137.479c-10.293,42.302-63.143,71.815-58.822,118.267
		c4.253,45.73,59.645,72.391,60.439,119.18C249.804,422.516,195.226,454.096,188.247,501z"/>
	<path d="M313.747,500.5c-20.916,0-41.832,0-62.748,0c7.392-46.509,61.907-78.527,60.737-125.951
		c-1.151-46.684-56.406-73.282-60.458-119.061c-4.107-46.404,48.693-75.809,58.885-118.146C322.313,86.87,258.132,48.046,250.996,0
		c20.917,0,41.833,0,62.75,0c7.139,48.043,71.313,86.872,59.164,137.342c-10.191,42.336-62.991,71.744-58.885,118.146
		c4.052,45.778,59.305,72.376,60.458,119.061C375.655,421.973,321.139,453.991,313.747,500.5z"/>
	<path d="M439.244,501c-20.917,0-41.833,0-62.75,0c6.976-46.907,61.557-78.482,60.75-126.075
		c-0.793-46.787-56.187-73.45-60.44-119.18c-4.321-46.451,48.527-75.965,58.822-118.267C447.917,86.976,383.649,48.058,376.494,0
		c20.917,0,41.833,0,62.75,0c7.154,48.058,71.42,86.975,59.133,137.479c-10.293,42.304-63.144,71.813-58.821,118.267
		c4.255,45.729,59.646,72.393,60.436,119.18C500.794,422.518,446.227,454.095,439.244,501z"/>
</g>
</svg>
