<svg xmlns="http://www.w3.org/2000/svg" x="0px" y="0px"
	 width="500px" height="500px" viewBox="0 0 500 500">
<g>
	<path d="M500,500c-60,0-120,0-180,0c-6.34-31.048-29.85-48.901-55.17-66.026c-33.689-22.784-70.434-41.006-106.415-59.8
		c-33.523-17.51-67.534-34.651-99.18-55.46c-21.201-13.94-55.296-35.216-58.82-63.482c-2.739-21.968,14.373-39.434,29.641-52.554
		c31.502-27.069,70.095-46.229,106.586-65.474c36.397-19.194,73.469-37.369,108.646-58.781C276.578,59.376,312.21,38.154,320,0
		c60,0,120,0,180,0c-7.79,38.153-43.422,59.376-74.712,78.423c-35.176,21.412-72.248,39.587-108.646,58.781
		c-36.491,19.244-75.084,38.405-106.586,65.474c-15.268,13.12-32.38,30.586-29.642,52.554c3.524,28.267,37.619,49.542,58.82,63.482
		c31.646,20.809,65.657,37.95,99.181,55.46c35.981,18.793,72.726,37.016,106.414,59.8C470.15,451.099,493.66,468.952,500,500z"/>
</g>
<g>
	<path d="M750,500c-60,0-120,0-180,0c-6.34-31.048-29.851-48.901-55.171-66.026c-33.688-22.784-70.432-41.007-106.413-59.8
		c-33.523-17.51-67.534-34.651-99.181-55.46c-21.202-13.94-55.296-35.215-58.82-63.482c-2.739-21.968,14.373-39.435,29.642-52.554
		c31.503-27.068,70.094-46.229,106.586-65.474c36.397-19.195,73.47-37.369,108.646-58.781C526.578,59.376,562.21,38.153,570,0
		c60,0,120,0,180,0c-7.79,38.153-43.422,59.376-74.712,78.423c-35.176,21.412-72.248,39.586-108.646,58.781
		c-36.492,19.245-75.083,38.406-106.586,65.474c-15.269,13.119-32.38,30.586-29.642,52.554c3.523,28.268,37.619,49.542,58.82,63.482
		c31.646,20.809,65.657,37.95,99.181,55.46c35.981,18.793,72.725,37.016,106.413,59.8C720.149,451.099,743.66,468.952,750,500z"/>
</g>
<g>
	<path d="M250,500c-60,0-120,0-180,0c-6.335-31.047-29.853-48.903-55.171-66.026c-33.689-22.784-70.433-41.007-106.414-59.8
		c-33.523-17.51-67.534-34.651-99.18-55.46c-21.201-13.94-55.296-35.216-58.82-63.482c-2.739-21.967,14.373-39.434,29.641-52.554
		c31.501-27.069,70.095-46.229,106.586-65.474c36.397-19.195,73.47-37.369,108.646-58.781C26.576,59.378,62.214,38.152,70,0
		c60,0,120,0,180,0c-7.784,38.152-43.425,59.378-74.712,78.423c-35.176,21.412-72.249,39.586-108.646,58.781
		c-36.491,19.244-75.083,38.405-106.585,65.474c-15.268,13.12-32.38,30.586-29.642,52.554c3.524,28.267,37.62,49.542,58.82,63.482
		c31.646,20.809,65.657,37.95,99.18,55.46c35.981,18.793,72.726,37.016,106.414,59.8C220.148,451.098,243.664,468.952,250,500z"/>
</g>
</svg>
